<svg width="22" height="20" viewBox="0 0 22 20" fill="none" xmlns="http://www.w3.org/2000/svg">
<path d="M1 9.5C1 10.6046 1.89543 11.5 3 11.5C4.65685 11.5 6 10.1569 6 8.5V4.5C6 2.84315 4.65685 1.5 3 1.5C1.89543 1.5 1 2.39543 1 3.5V9.5Z" stroke="#fff" stroke-width="1.5" stroke-linecap="round" stroke-linejoin="round"/>
<path d="M14.4787 14.1937L14.2124 13.3337C13.9942 12.6289 13.8851 12.2765 13.969 11.9982C14.0369 11.7731 14.1859 11.579 14.389 11.4513C14.64 11.2935 15.0197 11.2935 15.7791 11.2935H16.1831C18.7532 11.2935 20.0382 11.2935 20.6452 10.5327C20.7145 10.4458 20.7762 10.3533 20.8296 10.2563C21.2965 9.40785 20.7657 8.26487 19.704 5.9789C18.7297 3.88111 18.2425 2.83222 17.338 2.21485C17.2505 2.15508 17.1605 2.0987 17.0683 2.04586C16.116 1.5 14.9362 1.5 12.5764 1.5H12.0646C9.20572 1.5 7.77628 1.5 6.88814 2.36053C6 3.22106 6 4.60607 6 7.37607V8.34966C6 9.80536 6 10.5332 6.25834 11.1994C6.51668 11.8656 7.01135 12.4134 8.00069 13.5089L12.0921 18.0394C12.1947 18.1531 12.246 18.2099 12.2913 18.2493C12.7135 18.6167 13.3652 18.5754 13.7344 18.1577C13.774 18.1129 13.8172 18.0501 13.9036 17.9245C14.0388 17.728 14.1064 17.6297 14.1654 17.5323C14.6928 16.6609 14.8524 15.6256 14.6108 14.6429C14.5838 14.5331 14.5488 14.4199 14.4787 14.1937Z" stroke="#fff" stroke-width="1.5" stroke-linecap="round" stroke-linejoin="round"/>
</svg>
