<svg width="22" height="20" viewBox="0 0 22 20" fill="none" xmlns="http://www.w3.org/2000/svg">
<path d="M1 10.5001C1 9.39555 1.89543 8.50012 3 8.50012C4.65685 8.50012 6 9.84327 6 11.5001V15.5001C6 17.157 4.65685 18.5001 3 18.5001C1.89543 18.5001 1 17.6047 1 16.5001V10.5001Z" stroke="#fff" stroke-width="1.5" stroke-linecap="round" stroke-linejoin="round"/>
<path d="M14.4787 5.80638L14.2124 6.66646C13.9942 7.37123 13.8851 7.72361 13.969 8.00192C14.0369 8.22707 14.1859 8.42114 14.389 8.54883C14.64 8.70667 15.0197 8.70667 15.7791 8.70667H16.1831C18.7532 8.70667 20.0382 8.70667 20.6452 9.46742C20.7145 9.55437 20.7762 9.64682 20.8296 9.74379C21.2965 10.5923 20.7657 11.7353 19.704 14.0212C18.7297 16.119 18.2425 17.1679 17.338 17.7853C17.2505 17.845 17.1605 17.9014 17.0683 17.9543C16.116 18.5001 14.9362 18.5001 12.5764 18.5001H12.0646C9.20572 18.5001 7.77628 18.5001 6.88814 17.6396C6 16.7791 6 15.3941 6 12.624V11.6505C6 10.1948 6 9.4669 6.25834 8.80072C6.51668 8.13453 7.01135 7.58677 8.00069 6.49124L12.0921 1.96068C12.1947 1.84706 12.246 1.79024 12.2913 1.75087C12.7135 1.3834 13.3652 1.42477 13.7344 1.84247C13.774 1.88722 13.8172 1.95003 13.9036 2.07566C14.0388 2.27217 14.1064 2.37043 14.1654 2.46778C14.6928 3.33925 14.8524 4.37449 14.6108 5.35727C14.5838 5.46704 14.5488 5.58022 14.4787 5.80638Z" stroke="#fff" stroke-width="1.5" stroke-linecap="round" stroke-linejoin="round"/>
</svg>
